<svg width="500" height="500" viewBox="0 0 500 500" fill="none" xmlns="http://www.w3.org/2000/svg">
<rect width="500" height="500" fill="#FF6B57"/>
<path d="M250.486 106C239.594 106.058 228.832 108.258 218.783 112.47C208.749 116.696 199.631 122.848 191.982 130.591C184.318 138.335 178.268 147.511 174.153 157.599C170.037 167.688 167.943 178.485 168.001 189.384V216.928H235.027V177.023C235.027 175.156 235.391 173.289 236.118 171.567C236.831 169.83 237.878 168.267 239.216 166.935C240.539 165.604 242.11 164.561 243.84 163.838C245.571 163.114 247.418 162.752 249.293 162.752H251.708C253.584 162.752 255.43 163.114 257.161 163.838C258.892 164.561 260.462 165.604 261.785 166.935C263.109 168.267 264.156 169.83 264.883 171.567C265.596 173.304 265.974 175.156 265.974 177.023V284C274.772 284 283.497 282.263 291.627 278.891C299.756 275.518 307.143 270.583 313.368 264.359C319.592 258.135 324.522 250.739 327.895 242.605C331.269 234.47 333 225.743 333 216.942V189.399C333.043 167.326 324.362 146.122 308.845 130.446C301.225 122.703 292.15 116.566 282.13 112.369C272.082 108.142 261.335 105.986 250.486 106Z" fill="white"/>
<path d="M251.722 338.525H249.307C247.431 338.525 245.584 338.147 243.853 337.437C242.122 336.711 240.552 335.667 239.228 334.332C237.905 332.997 236.857 331.431 236.13 329.69C235.418 327.949 235.039 326.092 235.039 324.221V217C226.24 217 217.514 218.741 209.383 222.121C201.253 225.501 193.864 230.448 187.64 236.686C181.415 242.924 176.484 250.337 173.11 258.49C169.735 266.643 168.005 275.39 168.005 284.211V311.426C167.888 322.364 169.939 333.215 174.041 343.341C178.142 353.481 184.193 362.693 191.872 370.469C199.537 378.245 208.671 384.41 218.735 388.617C228.8 392.824 239.592 395 250.5 395C261.408 395 272.2 392.838 282.265 388.617C292.329 384.41 301.463 378.23 309.128 370.469C316.793 362.693 322.858 353.481 326.959 343.341C331.061 333.2 333.112 322.349 332.995 311.426V284.211H265.961V324.206C265.961 326.078 265.597 327.949 264.87 329.675C264.157 331.416 263.095 332.983 261.772 334.318C260.448 335.652 258.878 336.697 257.147 337.422C255.445 338.162 253.598 338.525 251.722 338.525Z" fill="white"/>
</svg>
