<svg width="500" height="500" viewBox="0 0 500 500" fill="none" xmlns="http://www.w3.org/2000/svg">
<rect width="500" height="500" fill="#FF6B57"/>
<path fill-rule="evenodd" clip-rule="evenodd" d="M175.662 349.652C145.285 326.966 125.675 290.758 125.675 249.936C125.675 181.237 181.365 125.547 250.064 125.547C306.779 125.547 368.621 159.448 383.617 211.293C366.827 153.424 313.38 111 250 111C173.226 111 111 173.226 111 250C111 326.774 173.226 389 250 389C326.774 389 389 326.774 389 250V242.694H381.374C381.118 242.694 380.797 242.694 380.349 242.694C379.451 242.694 378.17 242.63 376.503 242.566C373.235 242.438 368.685 242.246 363.558 241.797C353.113 240.9 341.257 239.106 333.118 235.901C320.109 230.71 312.739 223.789 304.344 215.715L303.831 215.266C295.436 207.191 285.952 198.091 269.546 190.401C253.397 182.775 235.517 183.993 222.379 186.748C215.715 188.094 210.011 189.953 205.974 191.426C203.923 192.131 202.321 192.836 201.167 193.285C194.567 196.041 188.158 199.373 181.686 202.385C181.686 202.385 194.374 205.846 200.719 207.832C200.975 207.896 201.296 208.024 201.744 208.153C202.705 208.473 204.051 208.922 205.653 209.627C208.986 210.972 213.343 213.023 217.637 215.779C224.43 220.136 230.07 225.648 232.377 232.377C217.958 234.299 204.436 240.58 194.374 246.539C188.222 250.128 183.16 253.717 179.571 256.409C177.776 257.754 176.367 258.908 175.405 259.677C174.572 260.382 161.563 271.789 161.563 271.789C161.563 271.789 178.353 273.583 186.62 275.249C192.131 276.339 199.565 278.133 207.32 280.825C215.074 283.516 222.956 287.105 229.493 291.655C236.03 296.205 240.836 301.524 243.207 307.548C250.064 325.107 243.335 342.282 229.749 351.895C216.355 361.379 196.041 363.622 175.662 349.652ZM223.084 371.441C228.532 369.646 233.658 367.083 238.272 363.815C256.729 350.677 266.406 326.71 256.857 302.229C253.076 292.616 245.899 285.247 237.888 279.671C229.877 274.096 220.713 269.994 212.19 267.047C206.615 265.124 201.167 263.586 196.425 262.432C198.091 261.343 199.886 260.19 201.808 259.1C213.087 252.499 227.25 246.411 240.836 246.411C261.343 246.411 276.595 252.692 291.207 259.42C292.552 260.061 293.834 260.638 295.18 261.279C308.189 267.367 321.903 273.84 337.796 273.84C353.241 273.84 365.225 269.482 373.492 264.996C366.122 326.645 313.636 374.453 250 374.453C240.772 374.325 231.736 373.299 223.084 371.441ZM357.663 255.896C352.215 257.754 345.551 259.1 337.796 259.1C325.3 259.1 314.598 254.101 301.012 247.757C299.794 247.18 298.576 246.604 297.359 246.027C283.773 239.746 268.008 233.018 247.501 231.8C244.745 218.214 234.427 208.922 225.648 203.282C224.687 202.641 223.661 202.065 222.7 201.488C223.597 201.296 224.494 201.103 225.391 200.911C237.247 198.476 251.41 197.835 263.33 203.474C277.556 210.139 285.567 217.893 293.898 225.904L294.154 226.16C302.742 234.427 311.842 243.015 327.671 249.359C336.515 252.948 347.922 254.87 357.663 255.896Z" fill="white"/>
</svg>
