<svg width="500" height="500" viewBox="0 0 500 500" fill="none" xmlns="http://www.w3.org/2000/svg">
<rect width="500" height="500" fill="#0B0B0B"/>
<path fill-rule="evenodd" clip-rule="evenodd" d="M161.222 369.009C124.945 341.916 101.526 298.675 101.526 249.923C101.526 167.88 168.033 101.373 250.077 101.373C317.808 101.373 391.663 141.859 409.571 203.774C389.52 134.665 325.691 84 250 84C158.314 84 84 158.314 84 250C84 341.687 158.314 416 250 416C341.687 416 416 341.687 416 250V241.275H406.893C406.586 241.275 406.204 241.275 405.668 241.275C404.597 241.275 403.066 241.199 401.076 241.122C397.173 240.969 391.739 240.74 385.616 240.204C373.142 239.132 358.983 236.989 349.263 233.163C333.727 226.964 324.926 218.698 314.9 209.055L314.288 208.519C304.262 198.876 292.935 188.008 273.343 178.824C254.056 169.717 232.704 171.171 217.014 174.462C209.055 176.069 202.243 178.289 197.422 180.049C194.973 180.891 193.059 181.733 191.682 182.268C183.799 185.559 176.146 189.539 168.416 193.136C168.416 193.136 183.569 197.269 191.146 199.641C191.452 199.718 191.835 199.871 192.371 200.024C193.519 200.407 195.126 200.942 197.039 201.784C201.019 203.391 206.223 205.84 211.351 209.131C219.463 214.336 226.198 220.917 228.953 228.953C211.734 231.249 195.585 238.75 183.569 245.867C176.222 250.153 170.176 254.439 165.89 257.653C163.747 259.261 162.064 260.638 160.916 261.556C159.921 262.398 144.385 276.021 144.385 276.021C144.385 276.021 164.436 278.164 174.309 280.154C180.891 281.455 189.769 283.598 199.029 286.812C208.29 290.027 217.703 294.313 225.509 299.746C233.316 305.18 239.056 311.533 241.888 318.727C250.077 339.697 242.041 360.207 225.816 371.687C209.82 383.014 185.559 385.693 161.222 369.009ZM217.856 395.03C224.361 392.887 230.484 389.826 235.994 385.923C258.036 370.233 269.592 341.61 258.189 312.374C253.674 300.894 245.102 292.093 235.535 285.435C225.969 278.776 215.024 273.878 204.846 270.358C198.187 268.062 191.682 266.225 186.018 264.847C188.008 263.546 190.151 262.169 192.447 260.868C205.917 252.985 222.831 245.714 239.056 245.714C263.546 245.714 281.761 253.214 299.211 261.25C300.818 262.016 302.349 262.704 303.956 263.47C319.492 270.74 335.87 278.47 354.85 278.47C373.295 278.47 387.606 273.266 397.479 267.909C388.678 341.533 325.997 398.627 250 398.627C238.979 398.474 228.188 397.249 217.856 395.03ZM378.575 257.041C372.07 259.261 364.111 260.868 354.85 260.868C339.926 260.868 327.145 254.898 310.92 247.321C309.466 246.633 308.012 245.944 306.558 245.255C290.333 237.755 271.506 229.719 247.015 228.265C243.724 212.04 231.402 200.942 220.917 194.207C219.769 193.442 218.545 192.753 217.397 192.065C218.468 191.835 219.54 191.605 220.611 191.376C234.77 188.468 251.684 187.702 265.919 194.437C282.909 202.397 292.476 211.657 302.425 221.224L302.731 221.53C312.987 231.403 323.854 241.658 342.758 249.235C353.319 253.521 366.942 255.817 378.575 257.041Z" fill="url(#paint0_linear_19_309)"/>
<defs>
<linearGradient id="paint0_linear_19_309" x1="81.0515" y1="253.062" x2="418.988" y2="246.887" gradientUnits="userSpaceOnUse">
<stop stop-color="#29CCB9"/>
<stop offset="0.4948" stop-color="#0091FF"/>
<stop offset="1" stop-color="#FF66B7"/>
</linearGradient>
</defs>
</svg>
