<svg width="500" height="500" viewBox="0 0 500 500" fill="none" xmlns="http://www.w3.org/2000/svg">
<rect width="500" height="500" fill="#FF6B57"/>
<path d="M250.3 402.462V350.451C245.065 350.451 239.716 349.996 234.481 349.2L226.286 400.527C234.253 401.893 242.333 402.462 250.3 402.462ZM274.2 400.641C282.166 399.389 290.019 397.568 297.644 395.064L281.597 345.558C276.59 347.151 271.355 348.403 266.119 349.2L274.2 400.641ZM202.956 395.064L219.003 345.671C213.995 344.078 209.101 342.03 204.321 339.64L180.649 385.96C187.819 389.488 195.331 392.561 202.956 395.064ZM319.837 385.96C327.007 382.318 333.835 378.107 340.322 373.441L309.594 331.445C305.383 334.518 300.831 337.363 296.051 339.64L319.837 385.96ZM160.164 373.327L190.892 331.332C186.681 328.259 182.584 324.845 178.828 321.089L141.954 357.849C147.645 363.426 153.79 368.661 160.164 373.327ZM358.418 358.077L358.759 357.735C364.45 352.159 369.685 346.013 374.351 339.64L332.242 309.025C329.169 313.236 325.641 317.333 321.999 320.975L321.43 321.544L339.184 338.274L358.418 358.077ZM126.363 339.526L168.472 308.911C165.399 304.7 162.554 300.148 160.164 295.482L113.73 319.04C117.372 326.21 121.583 333.039 126.363 339.526ZM386.87 319.154C390.512 312.098 393.585 304.587 396.089 296.961L346.468 281.028C344.875 286.036 342.826 290.93 340.436 295.596L386.87 319.154ZM104.511 296.961L154.132 280.914C152.539 275.907 151.287 270.785 150.49 265.55L98.9347 273.631C100.187 281.483 102.121 289.336 104.511 296.961ZM401.665 273.745C402.917 265.892 403.6 257.811 403.6 249.845H351.476C351.476 255.08 351.02 260.429 350.224 265.664L401.665 273.745ZM149.238 249.731C149.238 244.496 149.693 239.147 150.49 233.912L98.9347 225.831C97.6829 233.684 97.1138 241.764 97 249.731H149.238ZM350.224 234.025L401.779 225.945C400.527 218.092 398.706 210.239 396.202 202.614L346.582 218.547C348.175 223.669 349.427 228.79 350.224 234.025ZM154.132 218.547C155.725 213.54 157.774 208.646 160.164 203.98L113.73 180.422C110.088 187.478 107.015 194.989 104.511 202.614L154.132 218.547ZM340.55 204.094L387.098 180.535C383.456 173.365 379.245 166.537 374.465 160.05L332.242 190.664C335.315 194.875 338.16 199.428 340.55 204.094ZM168.472 190.551C171.545 186.34 175.073 182.243 178.828 178.487L178.942 178.373L142.068 141.613L141.954 141.727C136.264 147.417 131.029 153.449 126.363 159.936L168.472 190.551ZM321.999 178.714L333.153 167.447L358.759 141.954L358.646 141.841C352.955 136.264 346.923 131.029 340.55 126.363L309.822 168.358C314.033 171.431 318.13 174.845 321.772 178.601L321.999 178.714ZM191.006 168.13C195.217 165.057 199.769 162.326 204.549 159.936L180.877 113.616C173.707 117.258 166.878 121.469 160.391 126.135L191.006 168.13ZM296.392 160.05L320.178 113.73C313.008 110.088 305.611 107.015 297.986 104.511L281.825 153.904C286.719 155.611 291.612 157.66 296.392 160.05ZM219.23 153.904C224.238 152.311 229.473 151.059 234.708 150.262L226.628 98.9347C218.775 100.187 210.808 102.008 203.183 104.511L219.23 153.904ZM266.233 150.262L274.427 98.9347C266.575 97.6828 258.494 97 250.528 97V149.01C255.763 149.01 261.112 149.466 266.233 150.262Z" fill="white"/>
<path d="M250.3 352.841V300.603C245.862 300.603 241.537 300.034 237.212 298.896L223.555 349.313C232.318 351.59 241.309 352.841 250.3 352.841ZM277.045 349.313C285.808 347.037 294.116 343.623 301.969 339.071L275.566 293.889C271.81 296.051 267.713 297.758 263.502 298.896L277.045 349.313ZM198.745 339.071L225.148 293.889C221.393 291.726 217.865 288.995 214.678 285.922L214.223 285.467L197.607 302.88L177.121 322.568L177.463 322.91C183.836 329.169 191.006 334.632 198.745 339.071ZM323.251 322.91C329.625 316.537 335.201 309.48 339.64 301.741L294.003 275.566C291.84 279.321 289.109 282.735 285.922 285.922L323.251 322.91ZM160.961 301.628L206.598 275.566C204.435 271.81 202.728 267.827 201.59 263.616L150.718 277.045C152.994 285.581 156.522 293.889 160.961 301.628ZM349.996 277.159C352.273 268.509 353.524 259.632 353.524 250.755H300.831C300.831 255.08 300.262 259.519 299.124 263.729L349.996 277.159ZM199.997 250.641C199.997 246.317 200.566 241.878 201.704 237.667L150.718 224.238C148.442 232.887 147.19 241.764 147.19 250.641H199.997ZM299.01 237.781L349.996 224.352C347.72 215.702 344.192 207.394 339.754 199.655L294.116 225.717C296.165 229.587 297.872 233.57 299.01 237.781ZM206.712 225.717C208.874 222.076 211.491 218.548 214.678 215.475L214.792 215.361L195.9 196.696L177.804 178.145L177.463 178.487C171.089 184.746 165.627 191.916 161.074 199.541L206.712 225.717ZM285.922 215.475L304.587 196.924L323.707 178.942L323.251 178.487C316.878 172.114 309.708 166.765 301.969 162.212L275.566 207.394C279.321 209.557 282.736 212.174 285.922 215.247V215.475ZM225.148 207.394C228.904 205.232 233.001 203.525 237.212 202.387L223.783 151.97C215.02 154.246 206.712 157.66 198.859 162.212L225.148 207.394ZM263.388 202.501L277.045 152.083C268.396 149.807 259.405 148.555 250.414 148.555V200.793C254.739 200.793 259.177 201.362 263.388 202.501Z" fill="white"/>
</svg>
