<svg width="457" height="285" viewBox="0 0 457 285" fill="none" xmlns="http://www.w3.org/2000/svg">
<rect width="457" height="285" fill="#121214"/>
<mask id="mask0_16_16" style="mask-type:alpha" maskUnits="userSpaceOnUse" x="0" y="0" width="457" height="285">
<rect width="457" height="285" fill="url(#paint0_linear_16_16)"/>
</mask>
<g mask="url(#mask0_16_16)">
<g filter="url(#filter0_f_16_16)">
<ellipse cx="-78.5469" cy="-80.4164" rx="129.959" ry="139.84" fill="#FF6B57"/>
</g>
<g filter="url(#filter1_f_16_16)">
<ellipse cx="228.214" cy="416.588" rx="129.959" ry="139.84" fill="#FF6B57"/>
</g>
<g filter="url(#filter2_f_16_16)">
<ellipse cx="521.266" cy="-91.8417" rx="129.959" ry="139.84" fill="#FF6B57"/>
</g>
</g>
<path d="M113.743 143.597V141.833C113.743 136.766 114.911 133.015 117.249 130.579C119.587 128.144 122.603 126.926 126.298 126.926C129.994 126.926 133.01 128.144 135.348 130.579C137.699 133.015 138.875 136.766 138.875 141.833V143.597C138.875 148.664 137.699 152.415 135.348 154.851C133.01 157.286 129.994 158.504 126.298 158.504C122.603 158.504 119.587 157.286 117.249 154.851C114.911 152.415 113.743 148.664 113.743 143.597ZM119.601 144.583C119.601 147.943 120.202 150.399 121.406 151.953C122.61 153.507 124.241 154.284 126.298 154.284C128.342 154.284 129.966 153.507 131.169 151.953C132.387 150.399 132.996 147.943 132.996 144.583V140.867C132.996 137.508 132.387 135.058 131.169 133.519C129.966 131.965 128.342 131.188 126.298 131.188C124.241 131.188 122.61 131.965 121.406 133.519C120.202 135.058 119.601 137.508 119.601 140.867V144.583ZM143.305 158V127.43H149.205L159.703 146.935C159.927 147.369 160.13 147.81 160.312 148.258C160.508 148.706 160.669 149.147 160.795 149.581H160.942C160.914 149.119 160.9 148.643 160.9 148.153C160.9 147.663 160.9 147.18 160.9 146.704V127.43H165.855V158H160.018L149.436 138.453C149.212 138.019 149.009 137.585 148.827 137.151C148.645 136.703 148.484 136.262 148.344 135.828H148.197C148.225 136.304 148.239 136.787 148.239 137.277C148.253 137.753 148.26 138.229 148.26 138.705V158H143.305ZM170.264 143.597V141.833C170.264 136.752 171.426 133.001 173.75 130.579C176.073 128.144 179.076 126.926 182.757 126.926C186.326 126.926 189.112 127.843 191.113 129.676C193.115 131.51 194.116 134.029 194.116 137.235V138.243H188.552V136.941C188.552 135.107 188.069 133.694 187.103 132.7C186.151 131.692 184.709 131.188 182.778 131.188C180.762 131.188 179.16 131.958 177.97 133.498C176.794 135.037 176.206 137.48 176.206 140.825V144.625C176.206 147.845 176.801 150.259 177.991 151.869C179.181 153.479 180.804 154.284 182.862 154.284C184.709 154.284 186.102 153.773 187.04 152.751C187.978 151.715 188.475 150.224 188.531 148.279L188.552 147.229H194.116V148.447C194.032 151.456 193.01 153.885 191.05 155.732C189.105 157.58 186.333 158.504 182.736 158.504C178.929 158.504 175.898 157.272 173.645 154.809C171.391 152.345 170.264 148.608 170.264 143.597ZM198.063 158V127.43H203.753V139.88H215.385V127.43H221.075V158H215.385V144.542H203.753V158H198.063ZM223.531 158L233.945 127.346H240.16L250.532 158H244.737L237.599 135.807C237.431 135.275 237.291 134.799 237.179 134.379C237.067 133.945 236.962 133.526 236.864 133.12H236.759C236.661 133.526 236.549 133.945 236.423 134.379C236.311 134.799 236.178 135.275 236.024 135.807L229.011 158H223.531ZM228.948 150.966L230.04 146.893H243.792L244.926 150.966H228.948ZM252.989 158V127.43H258.721V158H252.989ZM264.117 158V127.43H270.017L280.515 146.935C280.739 147.369 280.942 147.81 281.124 148.258C281.319 148.706 281.48 149.147 281.606 149.581H281.753C281.725 149.119 281.711 148.643 281.711 148.153C281.711 147.663 281.711 147.18 281.711 146.704V127.43H286.667V158H280.83L270.248 138.453C270.024 138.019 269.821 137.585 269.639 137.151C269.457 136.703 269.296 136.262 269.156 135.828H269.009C269.037 136.304 269.051 136.787 269.051 137.277C269.065 137.753 269.072 138.229 269.072 138.705V158H264.117Z" fill="#FF6B57"/>
<path d="M292 158V127.43H303.169C306.403 127.43 308.859 128.326 310.539 130.117C312.233 131.895 313.08 134.281 313.08 137.277C313.08 140.272 312.24 142.673 310.56 144.479C308.894 146.27 306.417 147.166 303.127 147.166H297.689V158H292ZM297.689 143.009H302.288C304.191 143.009 305.514 142.47 306.256 141.392C307.012 140.314 307.39 138.964 307.39 137.34C307.39 135.73 307.012 134.393 306.256 133.33C305.514 132.266 304.191 131.734 302.288 131.734H297.689V143.009ZM311.715 158L322.129 127.346H328.344L338.716 158H332.921L325.782 135.807C325.614 135.275 325.474 134.799 325.362 134.379C325.25 133.945 325.145 133.526 325.047 133.12H324.942C324.844 133.526 324.732 133.945 324.606 134.379C324.494 134.799 324.361 135.275 324.208 135.807L317.195 158H311.715ZM317.132 150.966L318.224 146.893H331.976L333.11 150.966H317.132ZM339.934 149.686V148.552H345.393V149.413C345.393 151.078 345.875 152.324 346.841 153.15C347.807 153.962 349.151 154.368 350.873 154.368C352.58 154.368 353.889 153.976 354.799 153.192C355.723 152.408 356.185 151.358 356.185 150.042C356.185 148.839 355.73 147.873 354.82 147.145C353.924 146.417 352.146 145.64 349.487 144.814C346.379 143.849 344.091 142.666 342.621 141.266C341.151 139.852 340.41 137.921 340.396 135.471C340.396 132.896 341.319 130.831 343.167 129.277C345.029 127.71 347.541 126.926 350.705 126.926C353.826 126.926 356.339 127.689 358.242 129.214C360.146 130.74 361.098 132.84 361.098 135.513V136.416H355.702V135.744C355.702 134.33 355.282 133.211 354.442 132.385C353.602 131.559 352.377 131.146 350.768 131.146C349.088 131.146 347.863 131.503 347.093 132.217C346.323 132.917 345.938 133.868 345.938 135.072C345.938 136.192 346.386 137.081 347.282 137.739C348.178 138.397 349.984 139.146 352.699 139.985C355.737 140.909 357.997 142.113 359.481 143.597C360.965 145.066 361.707 147.082 361.707 149.644C361.707 152.373 360.72 154.536 358.746 156.131C356.786 157.713 354.176 158.504 350.915 158.504C347.667 158.504 345.022 157.755 342.978 156.257C340.948 154.746 339.934 152.555 339.934 149.686ZM364.709 149.686V148.552H370.168V149.413C370.168 151.078 370.651 152.324 371.617 153.15C372.583 153.962 373.926 154.368 375.648 154.368C377.356 154.368 378.664 153.976 379.574 153.192C380.498 152.408 380.96 151.358 380.96 150.042C380.96 148.839 380.505 147.873 379.595 147.145C378.699 146.417 376.922 145.64 374.262 144.814C371.155 143.849 368.866 142.666 367.396 141.266C365.927 139.852 365.185 137.921 365.171 135.471C365.171 132.896 366.095 130.831 367.942 129.277C369.804 127.71 372.317 126.926 375.48 126.926C378.601 126.926 381.114 127.689 383.018 129.214C384.921 130.74 385.873 132.84 385.873 135.513V136.416H380.477V135.744C380.477 134.33 380.057 133.211 379.217 132.385C378.377 131.559 377.153 131.146 375.543 131.146C373.863 131.146 372.639 131.503 371.869 132.217C371.099 132.917 370.714 133.868 370.714 135.072C370.714 136.192 371.162 137.081 372.058 137.739C372.953 138.397 374.759 139.146 377.475 139.985C380.512 140.909 382.773 142.113 384.256 143.597C385.74 145.066 386.482 147.082 386.482 149.644C386.482 152.373 385.495 154.536 383.521 156.131C381.562 157.713 378.951 158.504 375.69 158.504C372.443 158.504 369.797 157.755 367.753 156.257C365.724 154.746 364.709 152.555 364.709 149.686Z" fill="white"/>
<path d="M70 140.961C70 132.698 76.6983 126 84.961 126V126V140.961H70V140.961Z" fill="#FF6B57"/>
<path d="M70 143.039H84.961V158V158C76.6983 158 70 151.302 70 143.039V143.039Z" fill="#FF6B57" fill-opacity="0.4"/>
<path d="M87.0389 143.039H102V143.039C102 151.302 95.3017 158 87.0389 158V158V143.039Z" fill="#FF6B57" fill-opacity="0.6"/>
<path d="M87.0389 126V126C95.3017 126 102 132.698 102 140.961V140.961H87.0389V126Z" fill="#FF6B57" fill-opacity="0.8"/>
<defs>
<filter id="filter0_f_16_16" x="-465.533" y="-477.283" width="773.973" height="793.734" filterUnits="userSpaceOnUse" color-interpolation-filters="sRGB">
<feFlood flood-opacity="0" result="BackgroundImageFix"/>
<feBlend mode="normal" in="SourceGraphic" in2="BackgroundImageFix" result="shape"/>
<feGaussianBlur stdDeviation="128.514" result="effect1_foregroundBlur_16_16"/>
</filter>
<filter id="filter1_f_16_16" x="-158.772" y="19.7213" width="773.973" height="793.734" filterUnits="userSpaceOnUse" color-interpolation-filters="sRGB">
<feFlood flood-opacity="0" result="BackgroundImageFix"/>
<feBlend mode="normal" in="SourceGraphic" in2="BackgroundImageFix" result="shape"/>
<feGaussianBlur stdDeviation="128.514" result="effect1_foregroundBlur_16_16"/>
</filter>
<filter id="filter2_f_16_16" x="134.279" y="-488.709" width="773.973" height="793.734" filterUnits="userSpaceOnUse" color-interpolation-filters="sRGB">
<feFlood flood-opacity="0" result="BackgroundImageFix"/>
<feBlend mode="normal" in="SourceGraphic" in2="BackgroundImageFix" result="shape"/>
<feGaussianBlur stdDeviation="128.514" result="effect1_foregroundBlur_16_16"/>
</filter>
<linearGradient id="paint0_linear_16_16" x1="457" y1="0" x2="-21.7981" y2="241.845" gradientUnits="userSpaceOnUse">
<stop/>
<stop offset="1" stop-color="#060606"/>
</linearGradient>
</defs>
</svg>
