<svg width="500" height="500" viewBox="0 0 500 500" fill="none" xmlns="http://www.w3.org/2000/svg">
<rect width="500" height="500" fill="#FF6B57"/>
<path d="M365.16 298.198V138.168C364.946 124.778 354.532 114 341.461 114H178.443C143.268 114.544 115 144.047 115 180.189C115 192.382 118.188 202.833 123.077 211.978C127.221 219.598 133.703 226.783 140.08 232.118C141.886 233.642 141.036 232.989 146.562 236.473C154.214 241.262 162.928 243.657 162.928 243.657L162.821 339.349C163.034 343.921 163.459 348.276 164.628 352.304C168.241 365.803 177.38 376.145 189.814 381.152C195.021 383.221 200.866 384.636 207.136 384.746L337.317 385.181C363.246 385.181 384.288 363.626 384.288 336.954C384.393 321.169 376.743 307.016 365.16 298.198Z" fill="#FF6B57"/>
<path d="M368.346 338.152C367.815 355.243 354.106 368.96 337.315 368.96L247.73 368.633C254.85 360.142 259.207 349.146 259.207 337.172C259.207 318.339 248.261 305.384 248.261 305.384H337.421C354.531 305.384 368.452 319.644 368.452 337.172L368.346 338.152Z" fill="#FF6B57"/>
<path d="M148.581 218.619C138.273 208.604 131.047 195.649 131.047 180.299V178.666C131.897 152.43 152.938 131.31 178.549 130.548H341.567C345.818 130.766 349.219 133.814 349.219 138.278V279.583C352.938 280.237 354.744 280.781 358.358 282.088C361.228 283.177 365.16 285.462 365.16 285.462V138.278C364.946 124.887 354.532 114.11 341.462 114.11H178.443C143.268 114.654 115 144.156 115 180.299C115 201.31 124.352 219.273 139.655 231.9C140.717 232.772 141.674 233.861 144.437 233.861C149.219 233.861 152.62 229.941 152.407 225.696C152.301 222.103 150.813 220.797 148.581 218.619Z" fill="white"/>
<path d="M337.317 288.836H209.474C200.866 288.945 193.959 296.022 193.959 304.839V323.672C194.171 332.382 201.398 339.785 210.006 339.785H219.464V323.672H210.006V305.275C210.006 305.275 212.344 305.275 215.213 305.275C231.366 305.275 243.269 320.624 243.269 337.063C243.269 351.651 230.303 370.266 208.624 368.743C189.389 367.436 178.975 349.909 178.975 337.063V177.468C178.975 170.283 173.236 164.404 166.223 164.404H153.47V180.734H162.928V337.172C162.397 368.961 185.032 384.964 208.624 384.964L337.424 385.399C363.353 385.399 384.395 363.844 384.395 337.172C384.395 310.5 363.247 288.836 337.317 288.836ZM368.347 338.152C367.816 355.244 354.107 368.961 337.317 368.961L247.731 368.633C254.852 360.142 259.209 349.147 259.209 337.172C259.209 318.339 248.262 305.384 248.262 305.384H337.424C354.532 305.384 368.454 319.645 368.454 337.172L368.347 338.152Z" fill="white"/>
<path d="M302.883 183.675H206.496V167.346H302.883C307.24 167.346 310.854 170.938 310.854 175.511C310.854 179.974 307.347 183.675 302.883 183.675Z" fill="white"/>
<path d="M302.883 260.531H206.496V244.2H302.883C307.24 244.2 310.854 247.794 310.854 252.366C310.854 256.829 307.347 260.531 302.883 260.531Z" fill="white"/>
<path d="M319.887 222.103H206.496V205.773H319.779C324.138 205.773 327.75 209.366 327.75 213.938C327.856 218.401 324.244 222.103 319.887 222.103Z" fill="white"/>
</svg>
